<svg width="26" height="26" viewBox="0 0 26 26" fill="none" xmlns="http://www.w3.org/2000/svg">
<path d="M13.0001 14.5167L7.69178 19.825C7.49317 20.0236 7.24039 20.1229 6.93345 20.1229C6.6265 20.1229 6.37372 20.0236 6.17511 19.825C5.9765 19.6264 5.8772 19.3736 5.8772 19.0667C5.8772 18.7597 5.9765 18.507 6.17511 18.3083L11.4834 13L6.17511 7.69167C5.9765 7.49306 5.8772 7.24028 5.8772 6.93334C5.8772 6.6264 5.9765 6.37362 6.17511 6.17501C6.37372 5.9764 6.6265 5.87709 6.93345 5.87709C7.24039 5.87709 7.49317 5.9764 7.69178 6.17501L13.0001 11.4833L18.3084 6.17501C18.5071 5.9764 18.7598 5.87709 19.0668 5.87709C19.3737 5.87709 19.6265 5.9764 19.8251 6.17501C20.0237 6.37362 20.123 6.6264 20.123 6.93334C20.123 7.24028 20.0237 7.49306 19.8251 7.69167L14.5168 13L19.8251 18.3083C20.0237 18.507 20.123 18.7597 20.123 19.0667C20.123 19.3736 20.0237 19.6264 19.8251 19.825C19.6265 20.0236 19.3737 20.1229 19.0668 20.1229C18.7598 20.1229 18.5071 20.0236 18.3084 19.825L13.0001 14.5167Z" fill="#213F7D"/>
</svg>
