<svg width="16" height="16" viewBox="0 0 16 16" fill="none" xmlns="http://www.w3.org/2000/svg">
<path d="M9.77402 6.6696L9.77964 6.66579L9.75982 6.59624C9.71625 6.4433 9.564 6.32759 9.3989 6.34765C9.36766 6.34933 9.2924 6.35924 9.19011 6.38422C9.07397 6.41259 8.91755 6.46167 8.74075 6.54487C8.40542 6.70267 7.99708 6.98314 7.6526 7.47622C7.38761 7.30782 6.97325 7.15784 6.42653 7.2939C6.29055 7.31876 6.17483 7.43283 6.17119 7.59216C6.08092 8.23011 6.30839 8.84738 6.61299 9.35899C6.91327 9.86335 7.29487 10.2758 7.5466 10.5209C7.56249 10.5581 7.58043 10.5939 7.59543 10.6239L7.59569 10.6244C7.61097 10.6549 7.62171 10.6766 7.62821 10.6922C7.6364 10.863 7.64822 11.0075 7.66007 11.1146C7.66617 11.1697 7.67236 11.2156 7.67821 11.2505C7.68112 11.2679 7.68411 11.2835 7.68715 11.2966C7.68865 11.3031 7.69087 11.3121 7.69412 11.3217C7.72454 11.4852 7.8832 11.5873 8.03111 11.5873H8.07923V11.5881L8.09181 11.5865C8.27317 11.5635 8.41337 11.3849 8.36923 11.1958L8.36853 11.1913L8.36487 11.1666C8.36174 11.1447 8.35736 11.112 8.35247 11.0699C8.3436 10.9937 8.33307 10.8866 8.32522 10.7558C8.56205 10.4972 9.20005 9.75679 9.52866 9.10027L9.52867 9.10028L9.52938 9.0988C9.81883 8.49601 9.8759 7.88277 9.8616 7.41677C9.85445 7.18341 9.82936 6.98591 9.80607 6.84363C9.79441 6.77245 9.78321 6.71513 9.77498 6.67433L9.77402 6.6696ZM6.9818 8.07855C6.92085 8.12214 6.88058 8.17844 6.85872 8.23966C6.83687 8.13848 6.8234 8.03683 6.82009 7.9354C6.98554 7.93501 7.1176 7.97419 7.21917 8.02463C7.14071 8.01588 7.05964 8.03343 6.99031 8.0731L6.99005 8.07265L6.9818 8.07855ZM8.89404 8.78795C8.75729 9.0572 8.55609 9.35207 8.35423 9.6132C8.44352 9.0776 8.62863 8.48304 9.00878 7.96328L9.00879 7.96329L9.00941 7.96241C9.11803 7.81052 9.09966 7.60217 8.93811 7.48665C8.82302 7.40436 8.67553 7.39495 8.56056 7.46549C8.76994 7.28693 8.97675 7.18318 9.13929 7.12276C9.2005 7.494 9.20811 8.15929 8.90236 8.7713L8.89404 8.78795ZM8.00875 8.17268C8.14758 7.90645 8.30801 7.7028 8.4705 7.54698C8.46797 7.55025 8.46549 7.55358 8.46304 7.55697C8.17359 7.94341 7.97559 8.36361 7.84137 8.77622C7.86205 8.57284 7.91467 8.36895 8.00875 8.17268Z" fill="#213F7D" stroke="#213F7D" stroke-width="0.2"/>
<path d="M4.46006 11.84C4.46006 12.0233 4.61671 12.18 4.80006 12.18C4.98341 12.18 5.14006 12.0233 5.14006 11.84V5.75996C5.14006 5.57661 4.98341 5.41996 4.80006 5.41996C4.61671 5.41996 4.46006 5.57661 4.46006 5.75996V11.84Z" fill="#213F7D" stroke="#213F7D" stroke-width="0.2"/>
<path d="M2.85996 11.84C2.85996 12.0233 3.01661 12.18 3.19996 12.18C3.38331 12.18 3.53996 12.0233 3.53996 11.84V5.75996C3.53996 5.57661 3.38331 5.41996 3.19996 5.41996C3.01661 5.41996 2.85996 5.57661 2.85996 5.75996V11.84Z" fill="#213F7D" stroke="#213F7D" stroke-width="0.2"/>
<path d="M10.86 11.84C10.86 12.0233 11.0166 12.18 11.2 12.18C11.3833 12.18 11.54 12.0233 11.54 11.84V5.75996C11.54 5.57661 11.3833 5.41996 11.2 5.41996C11.0166 5.41996 10.86 5.57661 10.86 5.75996V11.84Z" fill="#213F7D" stroke="#213F7D" stroke-width="0.2"/>
<path d="M12.4601 11.84C12.4601 12.0233 12.6167 12.18 12.8001 12.18C12.9834 12.18 13.1401 12.0233 13.1401 11.84V5.75996C13.1401 5.57661 12.9834 5.41996 12.8001 5.41996C12.6167 5.41996 12.4601 5.57661 12.4601 5.75996V11.84Z" fill="#213F7D" stroke="#213F7D" stroke-width="0.2"/>
<path d="M13.5818 5.29997H13.36H2.64004C2.48648 5.29997 2.34567 5.19237 2.31862 5.04569C2.27553 4.88563 2.35048 4.75011 2.4727 4.66863L2.47684 4.66587L2.47691 4.66598L7.83662 1.46615C7.83666 1.46612 7.83671 1.4661 7.83675 1.46607L7.83691 1.46598L7.88817 1.55184C7.96817 1.50372 8.06442 1.50372 8.12817 1.55184L13.5818 5.29997ZM13.5818 5.29997L13.5366 5.24878C13.6335 5.18881 13.7013 5.08325 13.7149 4.97131L13.7156 4.9714V4.95926C13.7156 4.82907 13.6337 4.69696 13.517 4.64602L8.18352 1.46841L13.5818 5.29997ZM12.119 4.61997H3.86586L7.99994 2.14837L12.119 4.61997Z" fill="#213F7D" stroke="#213F7D" stroke-width="0.2"/>
<path d="M2.64015 12.98H13.3601C13.5435 12.98 13.7001 12.8233 13.7001 12.64C13.7001 12.4566 13.5435 12.3 13.3601 12.3H2.64015C2.45679 12.3 2.30015 12.4566 2.30015 12.64C2.30015 12.8233 2.45679 12.98 2.64015 12.98Z" fill="#213F7D" stroke="#213F7D" stroke-width="0.2"/>
<path d="M1.8401 13.78H14.1601C14.3435 13.78 14.5001 13.6233 14.5001 13.44C14.5001 13.2566 14.3435 13.1 14.1601 13.1H1.8401C1.65674 13.1 1.5001 13.2566 1.5001 13.44C1.5001 13.6233 1.65674 13.78 1.8401 13.78Z" fill="#213F7D" stroke="#213F7D" stroke-width="0.2"/>
<path d="M1.04005 14.5799H14.96C15.1434 14.5799 15.3 14.4233 15.3 14.2399C15.3 14.0566 15.1434 13.8999 14.96 13.8999H1.04005C0.856696 13.8999 0.700049 14.0566 0.700049 14.2399C0.700049 14.4233 0.856696 14.5799 1.04005 14.5799Z" fill="#213F7D" stroke="#213F7D" stroke-width="0.2"/>
</svg>
